PathFileType	4	(X/Y/Z)	C:\Users\Basilio\Documents\Thesis Gigler\squatting_fais\c3dfiles\076\SJ_pre5\markers_experimental.trc
DataRate	CameraRate	NumFrames	NumMarkers	Units	OrigDataRate	OrigDataStartFrame	OrigNumFrames
200.000000	200.000000	4	61	mm	200.000000	1127	1289
Frame#	Time	FHD			LBHD			RBHD			C7			T10			CLAV			LSHO			LUUPA			LMUPA			LDUPA			LLEP			LMEP			LRAD			LUL			LRFIN			RSHO			RUPA1			RMUPA			RDUPA			RLEP			RMEP			RRAD			RUL			RUFIN			LASI			RASI			USACR			LSACR			RSACR			LTHI1			LTHI2			LTHI3			LTHI4			LLFC			LMFC			LTIB1			LTIB2			LTIB3			LTIB4			LLMAL			LMMAL			LHEE			LMT1			LMT2			LMT5			RTHI			RTHI2			RTHI3			RTHI4			RLFC			RMFC			RTIB1			RTIB2			RTIB3			RTIB4			RLMAL			RMMAL			RHEE			RMT1			RMT2			RMT5			
		X1	Y1	Z1	X2	Y2	Z2	X3	Y3	Z3	X4	Y4	Z4	X5	Y5	Z5	X6	Y6	Z6	X7	Y7	Z7	X8	Y8	Z8	X9	Y9	Z9	X10	Y10	Z10	X11	Y11	Z11	X12	Y12	Z12	X13	Y13	Z13	X14	Y14	Z14	X15	Y15	Z15	X16	Y16	Z16	X17	Y17	Z17	X18	Y18	Z18	X19	Y19	Z19	X20	Y20	Z20	X21	Y21	Z21	X22	Y22	Z22	X23	Y23	Z23	X24	Y24	Z24	X25	Y25	Z25	X26	Y26	Z26	X27	Y27	Z27	X28	Y28	Z28	X29	Y29	Z29	X30	Y30	Z30	X31	Y31	Z31	X32	Y32	Z32	X33	Y33	Z33	X34	Y34	Z34	X35	Y35	Z35	X36	Y36	Z36	X37	Y37	Z37	X38	Y38	Z38	X39	Y39	Z39	X40	Y40	Z40	X41	Y41	Z41	X42	Y42	Z42	X43	Y43	Z43	X44	Y44	Z44	X45	Y45	Z45	X46	Y46	Z46	X47	Y47	Z47	X48	Y48	Z48	X49	Y49	Z49	X50	Y50	Z50	X51	Y51	Z51	X52	Y52	Z52	X53	Y53	Z53	X54	Y54	Z54	X55	Y55	Z55	X56	Y56	Z56	X57	Y57	Z57	X58	Y58	Z58	X59	Y59	Z59	X60	Y60	Z60	X61	Y61	Z61	

1128	5.635	-331.5415344238282	1605.04931640625	-908.5679321289065	-372.5404052734376	1551.595825195313	-1078.762451171875	-461.931854248047	1540.221313476563	-954.665710449219	-473.859100341797	1430.339233398438	-1028.695068359375	-521.3327026367189	1111.75048828125	-1031.014770507813	-348.6611328125001	1345.776245117188	-985.1293945312502	-360.5674743652344	1364.340209960938	-1173.2802734375	-346.8506164550782	1199.45263671875	-1292.530151367188	-340.4240722656251	1156.191040039063	-1268.28271484375	-349.4966125488282	1137.886474609375	-1325.810180664063	-356.0126953125001	1088.6474609375	-1353.148803710938	-443.5980224609376	1085.183715820313	-1340.024169921875	-416.1596679687501	923.3741455078127	-1184.642578125	-371.9728698730469	938.899597167969	-1147.810913085938	-363.9646301269532	887.2377929687502	-1206.001831054688	-457.9541320800782	1375.16455078125	-844.808532714844	-548.0526733398439	1251.357299804688	-719.8962402343751	-521.4937133789064	1209.918701171875	-709.3637084960939	-573.5289306640626	1196.887939453125	-681.4591064453126	-581.1215820312501	1127.734375	-656.9572143554689	-639.0191650390626	1118.648193359375	-724.3449707031251	-525.8433227539064	966.3194580078127	-828.4165649414065	-471.5267028808595	982.9229736328127	-823.8851318359377	-495.2541503906251	934.2479248046877	-778.6492919921877	-351.3035278320313	910.2041015625002	-1078.414428710938	-401.4724121093751	931.694763183594	-877.9346923828127	-533.4953613281251	998.8780517578127	-1022.250915527344	-535.3677368164064	968.798278808594	-1049.4951171875	-547.9136962890626	970.3737792968752	-994.7894287109377	-433.589080810547	761.9182128906251	-1154.276489257813	-415.5715942382814	680.6929321289064	-1141.776611328125	-368.9526367187501	679.7852783203126	-1124.9970703125	-452.3528442382814	632.9912719726564	-1132.003295898438	-475.1787414550782	472.6232910156251	-1101.107177734375	-449.7581787109376	469.2547302246095	-984.0100097656252	-445.8706359863282	330.6128845214844	-1027.616455078125	-467.9043273925782	274.4343872070313	-1092.811279296875	-438.3085327148439	278.9508361816407	-1056.011596679688	-451.9778747558595	203.2325286865235	-1021.344177246094	-508.7970581054689	77.63344573974611	-1070.203125	-476.8109436035157	89.38176727294923	-990.571716308594	-558.1657714843751	42.04968643188477	-1018.08056640625	-346.5109252929688	53.38852691650392	-1031.490600585938	-347.0973205566407	53.89025497436525	-1070.26123046875	-372.0656738281251	43.64521026611329	-1118.69384765625	-479.2302551269532	684.8858642578126	-809.090270996094	-437.9057922363282	636.7007446289064	-785.4214477539065	-403.2117614746095	645.5961303710939	-781.1331176757815	-444.1351318359376	555.7398071289064	-803.138366699219	-433.188934326172	494.4420776367189	-803.044860839844	-354.5095825195313	490.2447509765626	-891.113708496094	-374.6150817871094	366.8211364746094	-786.872497558594	-436.9173583984376	277.4169311523438	-796.1547851562502	-393.1062622070314	281.5807800292969	-779.350769042969	-357.8119812011719	238.9797821044922	-797.6247558593752	-408.6207580566407	88.21176147460939	-791.4707641601565	-346.7619018554688	108.3269729614258	-848.073181152344	-423.4600830078126	55.17681884765626	-859.3316650390627	-246.1125030517579	77.10903930664064	-754.9577026367189	-267.9317321777344	83.53194427490236	-716.1649780273439	-317.7213439941407	57.37337112426759	-687.6322631835939	
1129	5.64	-331.8988647460938	1603.99853515625	-908.471862792969	-371.6235351562501	1551.939208984375	-1078.994262695313	-462.0145874023439	1540.838500976563	-955.8232421875002	-474.3234252929689	1430.743286132813	-1029.744750976563	-521.8170776367189	1111.593139648438	-1031.650024414063	-349.3689575195313	1345.7734375	-985.4832763671877	-360.7119445800782	1363.940673828125	-1173.760498046875	-346.2210388183594	1198.89501953125	-1292.506591796875	-339.8160705566407	1155.5263671875	-1268.1240234375	-348.4228210449219	1137.03125	-1325.546630859375	-354.8291625976563	1087.890869140625	-1352.800659179688	-442.3945312500001	1084.38134765625	-1340.220458984375	-415.7234802246095	923.058776855469	-1184.39013671875	-371.8149108886719	938.7241821289065	-1147.379760742188	-363.5313415527344	886.8054199218752	-1205.289306640625	-459.2491149902345	1375.558471679688	-845.571716308594	-550.0201416015626	1251.879150390625	-721.0004882812501	-523.5693969726564	1210.64697265625	-710.2828369140626	-575.6809082031251	1197.593505859375	-682.5020751953126	-583.5602416992189	1128.277099609375	-658.0562133789064	-641.0479125976564	1119.254150390625	-725.7296752929689	-527.5913085937501	966.7722167968752	-828.8726806640627	-473.0610961914064	983.3596801757815	-824.1389160156252	-496.915008544922	934.7158203125002	-778.7832031250002	-351.7009887695313	910.0623779296877	-1077.93505859375	-402.669403076172	931.9602050781252	-877.7182617187502	-534.3186035156251	999.1987915039065	-1022.755004882813	-535.7537231445314	968.8811645507815	-1049.880493164063	-548.6932373046876	970.570495605469	-995.4002075195315	-433.6996459960939	761.9487304687501	-1154.022827148438	-415.6033935546876	680.7330322265626	-1141.538696289063	-369.2003479003907	679.7533569335939	-1124.42724609375	-452.5026855468751	632.9478759765626	-1131.815063476563	-475.2639160156251	472.6014709472657	-1101.015014648438	-450.3303833007814	469.223114013672	-983.8035888671877	-446.0966796875001	330.6299133300782	-1027.539428710938	-467.8327636718751	274.3244018554688	-1092.72412109375	-438.690887451172	278.9010314941407	-1055.798706054688	-451.8729248046876	203.0941467285157	-1021.244506835938	-508.849334716797	77.6289749145508	-1070.1611328125	-476.0929565429689	89.47530364990236	-990.867370605469	-558.1696166992189	41.97299957275391	-1018.129272460938	-346.5520629882813	53.30652999877931	-1031.447998046875	-347.0771179199219	53.8827590942383	-1070.265991210938	-372.1442871093751	43.71611404418946	-1118.707153320313	-480.7634582519532	685.2345581054689	-809.0974121093752	-439.6972045898439	636.8817138671876	-785.3804321289065	-404.8591613769532	645.7404785156251	-781.0139770507815	-445.7510070800782	556.0698852539064	-802.8406982421877	-435.0348510742189	494.6327209472657	-802.5985107421877	-355.6699523925782	490.1649475097657	-890.4340820312502	-377.0711669921876	366.7148437500001	-786.8123168945315	-439.9682617187501	277.6376953125001	-796.2491455078127	-396.0683593750001	281.7087402343751	-779.3109130859377	-360.9701843261719	238.6825256347657	-798.1181640625002	-412.8182678222657	88.39070892333986	-791.9915161132815	-351.1248779296876	108.1966323852539	-848.9434204101565	-428.1503906250001	55.51080322265626	-859.851745605469	-250.4661407470704	75.96519470214845	-756.4624023437501	-271.8771972656251	82.7992630004883	-717.5103149414064	-321.5485839843751	56.77686691284181	-688.6937866210939	
1130	5.645	-331.9990539550782	1603.087524414063	-908.0098876953127	-370.1145019531251	1552.311767578125	-1078.765869140625	-462.0363769531251	1541.4775390625	-956.880065917969	-474.7074584960939	1430.95263671875	-1030.667602539063	-522.2833251953126	1111.620239257813	-1032.275146484375	-350.1009216308594	1345.749145507813	-985.753601074219	-360.9582519531251	1363.522827148438	-1174.196044921875	-345.3840332031251	1198.227783203125	-1292.242797851563	-339.3273620605469	1155.077270507813	-1268.076293945313	-347.0758972167969	1136.36083984375	-1325.059448242188	-353.9917907714844	1087.208862304688	-1352.85400390625	-440.6968994140626	1083.181518554688	-1340.431518554688	-415.3689270019532	922.5961914062502	-1183.965698242188	-371.7100524902344	938.5286865234377	-1146.906616210938	-363.1014099121094	886.4439697265627	-1204.50439453125	-460.6264953613282	1375.991088867188	-846.421569824219	-551.9702148437501	1252.519287109375	-722.0180664062501	-525.5419921875001	1211.111572265625	-711.1054077148439	-577.7308349609376	1198.243041992188	-683.5092773437501	-585.8027343750001	1129.137939453125	-658.9625244140626	-642.8341064453126	1119.998413085938	-726.9223022460939	-528.9890747070314	967.168151855469	-829.2270507812502	-474.3543395996095	983.7518310546877	-823.6016845703127	-498.8191223144532	934.8581542968752	-778.7225341796877	-352.2681884765626	909.7835083007815	-1077.263793945313	-403.9207153320314	932.1601562500002	-877.382751464844	-534.9852294921876	999.350280761719	-1023.133911132813	-536.3910522460939	968.8355102539065	-1050.342895507813	-549.4877319335939	970.7412109375002	-995.849060058594	-433.8503417968751	761.9620361328126	-1153.670776367188	-415.857879638672	680.7272949218751	-1141.2578125	-369.5769653320313	679.6667480468751	-1123.981689453125	-452.7109375000001	632.9296875000001	-1131.614624023438	-475.4931030273439	472.5453186035157	-1100.907104492188	-450.7686462402345	469.2114257812501	-983.6691894531252	-446.2841796875001	330.6092834472657	-1027.391967773438	-467.8695373535157	274.3180236816407	-1092.711181640625	-438.9860839843751	278.9981384277344	-1055.71044921875	-452.2043457031251	203.2527313232422	-1021.165405273438	-508.8452148437501	77.61842346191408	-1070.209106445313	-476.0944213867189	89.44807434082033	-990.824645996094	-558.2019042968751	41.97439575195313	-1018.099914550781	-346.4898376464844	53.27940368652345	-1031.457641601563	-347.1011962890626	53.8923683166504	-1070.2314453125	-372.0759277343751	43.65978240966798	-1118.688720703125	-482.116668701172	685.6875610351564	-809.0667114257815	-441.0733947753907	637.3378906250001	-785.1465454101565	-406.4400024414064	646.0698242187501	-780.528259277344	-447.5379638671876	556.3535766601564	-802.5364990234377	-436.8523864746095	494.915008544922	-802.3540039062502	-357.7528381347657	490.3069152832032	-889.965515136719	-379.6133728027344	366.4744873046876	-786.8620605468752	-443.0667724609376	277.9458923339844	-796.1670532226565	-399.1073608398439	281.5421142578126	-779.5386962890627	-364.3835144042969	238.5048217773438	-798.318542480469	-417.1388549804689	88.46247863769533	-792.4680175781252	-355.5350341796876	107.9395294189453	-849.6630859375002	-433.2272338867189	55.67611312866212	-860.3950195312502	-254.4110717773438	75.59990692138673	-757.9376831054689	-275.5173645019532	82.03108215332033	-718.8350830078126	-325.3942565917969	56.31372451782228	-689.7908935546876	
1131	5.65	-331.6368713378907	1602.552734375	-907.1721191406252	-368.5646667480469	1553.2998046875	-1079.327758789063	-462.0730590820314	1542.195190429688	-958.0225219726565	-475.1054077148439	1430.916748046875	-1031.50927734375	-523.1495361328126	1112.109985351563	-1032.729614257813	-350.8645324707032	1345.768920898438	-986.1358032226565	-361.1014709472657	1363.083862304688	-1174.524047851563	-344.6875000000001	1197.638305664063	-1292.264404296875	-338.5743713378907	1154.509643554688	-1267.785766601563	-346.1085510253907	1135.670043945313	-1324.859741210938	-352.3013610839844	1086.253051757813	-1352.11376953125	-440.1548461914064	1082.499267578125	-1340.728271484375	-414.6409606933595	922.345886230469	-1183.47607421875	-371.4494323730469	938.3565673828127	-1146.378295898438	-362.7380676269532	885.9965820312502	-1203.76416015625	-461.7607421875001	1376.387451171875	-847.1151123046877	-553.8303833007814	1253.001953125	-723.0063476562501	-527.4881591796876	1211.771606445313	-711.7955322265626	-579.8735961914064	1198.918212890625	-684.5388793945314	-587.9358520507814	1129.864013671875	-659.9747924804689	-644.7745361328126	1120.434326171875	-728.2302246093751	-530.3648681640626	967.5479736328127	-829.616149902344	-475.7611083984376	984.087829589844	-823.7406005859377	-500.436004638672	935.3822021484377	-778.7053833007815	-352.6051635742188	909.8303833007815	-1076.42431640625	-405.0357666015626	932.2883911132815	-876.9108886718752	-535.7959594726564	999.254821777344	-1023.612915039063	-537.0421142578126	968.9595947265627	-1050.820556640625	-550.2216186523439	971.0458984375002	-996.320007324219	-433.9823303222657	761.9693603515626	-1153.39599609375	-415.9748535156251	680.7331542968751	-1140.9853515625	-369.7238159179688	679.6712036132814	-1123.456787109375	-452.8193664550782	632.8773193359376	-1131.418212890625	-475.5899658203126	472.5356750488282	-1100.778930664063	-451.210418701172	469.1207580566407	-983.5239257812502	-446.4771423339845	330.5671386718751	-1027.225952148438	-467.9249877929689	274.2683410644532	-1092.633544921875	-439.0809326171876	278.9983215332032	-1055.524169921875	-452.3418273925782	203.1962280273438	-1021.076049804688	-508.7886657714845	77.58953094482423	-1070.203369140625	-476.154022216797	89.39587402343751	-990.8023071289065	-558.1729125976564	41.97871398925782	-1018.068176269531	-346.6182861328126	53.15016174316408	-1031.386352539063	-347.1081237792969	53.89892196655275	-1070.236206054688	-372.0506896972657	43.67479324340821	-1118.665283203125	-483.5274658203126	685.9877929687501	-808.9261474609377	-442.6195373535157	637.5841674804689	-784.952819824219	-408.0572509765626	646.1486206054689	-780.0129394531252	-449.2401733398439	556.6357421875001	-802.2195434570315	-438.6976318359376	495.1130981445314	-801.8247070312502	-359.6758117675782	490.2409057617189	-889.5524902343752	-381.9869384765626	366.2461853027344	-786.7631835937502	-446.2297973632814	278.2892150878907	-796.0989379882815	-402.1978759765626	281.2808227539063	-779.7341308593752	-367.9102172851563	238.0556335449219	-798.8525390625002	-421.5884399414064	88.51892089843751	-792.9053955078127	-360.2624816894532	107.8054809570313	-850.5971679687502	-438.3821105957032	55.86550903320314	-860.8364868164065	-258.4804992675782	74.85544586181642	-759.4636230468751	-279.4065551757813	81.50474548339845	-720.2501220703126	-329.2541503906251	55.9082489013672	-690.8790893554689	
